<svg width="178" height="48" viewBox="0 0 178 48" fill="none" xmlns="http://www.w3.org/2000/svg">
<rect width="178" height="48" rx="24" fill="#FFD338"/>
<path d="M14 33.0609C14 35.655 15.2945 37 17.7901 37H30.2099C32.7056 37 34 35.655 34 33.0609V14.939C34 12.357 32.7056 11 30.2099 11H17.7901C15.2945 11 14 12.357 14 14.939V33.0609ZM16.2857 32.9168V15.0831C16.2857 13.9663 16.8455 13.3538 17.9767 13.3538H30.0117C31.1428 13.3538 31.7144 13.9663 31.7144 15.0831V32.9168C31.7144 34.0337 31.1428 34.6462 30.0117 34.6462H17.9767C16.8455 34.6462 16.2857 34.0337 16.2857 32.9168ZM19.7376 18.2896H28.274C28.6939 18.2896 29.0204 17.9533 29.0204 17.521C29.0204 17.1007 28.6939 16.7764 28.274 16.7764H19.7376C19.3061 16.7764 18.9796 17.1007 18.9796 17.521C18.9796 17.9533 19.3061 18.2896 19.7376 18.2896ZM19.7376 22.3968H28.274C28.6939 22.3968 29.0204 22.0605 29.0204 21.6282C29.0204 21.2078 28.6939 20.8836 28.274 20.8836H19.7376C19.3061 20.8836 18.9796 21.2078 18.9796 21.6282C18.9796 22.0605 19.3061 22.3968 19.7376 22.3968ZM19.7376 26.5039H23.8659C24.2857 26.5039 24.6006 26.1797 24.6006 25.7593C24.6006 25.327 24.2857 24.9787 23.8659 24.9787H19.7376C19.3061 24.9787 18.9796 25.327 18.9796 25.7593C18.9796 26.1797 19.3061 26.5039 19.7376 26.5039Z" fill="black"/>
<path d="M58.64 31.5V25.78H62.34L65.04 31.5H67.22L64.28 25.4C66.08 24.82 67.08 23.38 67.08 21.38C67.08 18.68 65.24 17.04 62.14 17.04H56.68V31.5H58.64ZM58.64 18.8H62.14C63.94 18.8 65.02 19.72 65.02 21.4C65.02 23.06 63.98 24.04 62.16 24.04H58.64V18.8ZM72.9628 31.74C75.3828 31.74 77.0228 30.56 77.5028 28.46H75.7428C75.4228 29.58 74.4628 30.18 73.0028 30.18C71.1428 30.18 70.0628 29.04 69.9228 26.98L77.4828 26.96V26.26C77.4828 23.36 75.6628 21.44 72.8828 21.44C70.0428 21.44 68.1028 23.56 68.1028 26.62C68.1028 29.66 70.0828 31.74 72.9628 31.74ZM72.8828 23.02C74.5428 23.02 75.6028 24.1 75.6028 25.72H69.9628C70.2028 24 71.2428 23.02 72.8828 23.02ZM82.345 31.74C83.925 31.74 85.265 31.04 85.765 29.92L85.965 31.5H87.565V25.36C87.565 22.72 85.925 21.44 83.505 21.44C80.985 21.44 79.305 22.78 79.305 24.82H80.945C80.945 23.64 81.845 22.94 83.425 22.94C84.745 22.94 85.725 23.52 85.725 25.16V25.44L82.645 25.68C80.345 25.86 79.005 26.98 79.005 28.78C79.005 30.56 80.245 31.74 82.345 31.74ZM82.885 30.28C81.665 30.28 80.905 29.76 80.905 28.72C80.905 27.76 81.585 27.12 83.245 26.96L85.745 26.76V27.28C85.745 29.12 84.665 30.28 82.885 30.28ZM94.0886 31.74C95.6486 31.74 96.9686 31.06 97.6086 29.72L97.7686 31.5H99.4486V16.78H97.5886V23.3C96.9286 22.1 95.6686 21.44 94.1686 21.44C91.2686 21.44 89.5286 23.64 89.5286 26.64C89.5286 29.62 91.2486 31.74 94.0886 31.74ZM94.4686 30.04C92.5486 30.04 91.4286 28.6 91.4286 26.58C91.4286 24.58 92.5486 23.14 94.4686 23.14C96.3886 23.14 97.5686 24.58 97.5686 26.58C97.5686 28.62 96.3886 30.04 94.4686 30.04ZM110.49 31.74C112.07 31.74 113.41 31.04 113.91 29.92L114.11 31.5H115.71V25.36C115.71 22.72 114.07 21.44 111.65 21.44C109.13 21.44 107.45 22.78 107.45 24.82H109.09C109.09 23.64 109.99 22.94 111.57 22.94C112.89 22.94 113.87 23.52 113.87 25.16V25.44L110.79 25.68C108.49 25.86 107.15 26.98 107.15 28.78C107.15 30.56 108.39 31.74 110.49 31.74ZM111.03 30.28C109.81 30.28 109.05 29.76 109.05 28.72C109.05 27.76 109.73 27.12 111.39 26.96L113.89 26.76V27.28C113.89 29.12 112.81 30.28 111.03 30.28ZM123.913 21.64C123.533 21.56 123.253 21.52 122.913 21.52C121.573 21.52 120.593 22.2 120.193 23.22L120.073 21.74H118.313V31.5H120.193V26.32C120.193 24.44 121.293 23.36 123.073 23.36H123.913V21.64ZM128.827 31.5V23.3H130.747V21.72H128.827V18.66H126.947V21.72H125.027V23.3H126.947V31.5H128.827ZM133.354 19.4C134.034 19.4 134.594 18.84 134.594 18.16C134.594 17.46 134.034 16.92 133.354 16.92C132.674 16.92 132.114 17.46 132.114 18.16C132.114 18.84 132.674 19.4 133.354 19.4ZM132.434 31.5H134.314V21.72H132.434V31.5ZM136.404 26.62C136.404 29.7 138.304 31.74 141.184 31.74C143.544 31.74 145.364 30.32 145.744 28.2H143.864C143.524 29.36 142.524 30.06 141.184 30.06C139.404 30.06 138.264 28.7 138.264 26.6C138.264 24.48 139.484 23.12 141.264 23.12C142.524 23.12 143.524 23.78 143.844 25.02H145.724C145.384 22.84 143.664 21.44 141.204 21.44C138.344 21.44 136.404 23.56 136.404 26.62ZM149.647 31.5V16.78H147.767V31.5H149.647ZM156.635 31.74C159.055 31.74 160.695 30.56 161.175 28.46H159.415C159.095 29.58 158.135 30.18 156.675 30.18C154.815 30.18 153.735 29.04 153.595 26.98L161.155 26.96V26.26C161.155 23.36 159.335 21.44 156.555 21.44C153.715 21.44 151.775 23.56 151.775 26.62C151.775 29.66 153.755 31.74 156.635 31.74ZM156.555 23.02C158.215 23.02 159.275 24.1 159.275 25.72H153.635C153.875 24 154.915 23.02 156.555 23.02Z" fill="black"/>
</svg>
